<svg width="962" height="850" viewBox="0 0 962 850" fill="none" xmlns="http://www.w3.org/2000/svg">
<circle cx="425" cy="425" r="420" stroke="#C21D59" stroke-width="10" stroke-dasharray="20 20"/>
<line x1="420" y1="850" x2="420" stroke="#33B728" stroke-width="10"/>
<path d="M507.773 355.182V425H499.318V364.045H498.909L481.864 375.364V366.773L499.318 355.182H507.773Z" fill="#33B728"/>
<path d="M955.818 372.636V380.136H904.409V372.636H955.818ZM920.227 372.636V425H912.182V372.636H920.227ZM940.273 372.636H948.318V412.045C948.318 413.682 948.614 414.909 949.205 415.727C949.818 416.545 950.568 417.091 951.455 417.364C952.364 417.636 953.273 417.773 954.182 417.773C954.932 417.773 955.693 417.693 956.466 417.534C957.261 417.375 957.864 417.227 958.273 417.091V424.591C957.591 424.795 956.67 425.023 955.511 425.273C954.352 425.545 952.955 425.682 951.318 425.682C948.114 425.682 945.466 424.67 943.375 422.648C941.307 420.625 940.273 417.091 940.273 412.045V372.636Z" fill="#D13074"/>
</svg>
