<?xml version="1.0" encoding="utf-8"?>
<!-- Generator: Adobe Illustrator 26.3.0, SVG Export Plug-In . SVG Version: 6.00 Build 0)  -->
<svg version="1.1" id="Layer_1" xmlns="http://www.w3.org/2000/svg" xmlns:xlink="http://www.w3.org/1999/xlink" x="0px" y="0px"
	 viewBox="0 0 15 11" style="enable-background:new 0 0 15 11;" xml:space="preserve">
<style type="text/css">
	.st0{fill:#EEEEEE;}
</style>
<path class="st0" d="M4.9,0.1C4.9,0.2,5,0.4,5,0.5S4.9,0.8,4.9,0.9L1.7,4H7c2.9,0,5.6,1.6,6.9,4C14,8.1,14,8.2,14,8.2s0,0.1,0,0.2
	c0,0.1,0,0.1-0.1,0.2c0,0.1-0.1,0.1-0.2,0.1c-0.1,0-0.1,0.1-0.2,0.1c-0.1,0-0.1,0-0.2,0c-0.1,0-0.1-0.1-0.2-0.1
	c-0.1,0-0.1-0.1-0.1-0.2C11.9,6.4,9.6,5,7,5H1.7l3.1,3.1C4.9,8.2,5,8.4,5,8.5c0,0.1-0.1,0.3-0.1,0.3C4.8,8.9,4.6,9,4.5,9
	c-0.1,0-0.3,0-0.4-0.1l-4-4c0,0-0.1-0.1-0.1-0.2c0-0.1,0-0.1,0-0.2c0-0.1,0-0.1,0-0.2c0-0.1,0.1-0.1,0.1-0.2l4-4
	C4.2,0.1,4.4,0,4.5,0S4.8,0.1,4.9,0.1z"/>
</svg>
