<svg width="15" height="11" viewBox="0 0 15 11" fill="none" xmlns="http://www.w3.org/2000/svg">
<path d="M4.85067 0.146393C4.9444 0.240157 4.99706 0.367311 4.99706 0.499893C4.99706 0.632475 4.9444 0.759629 4.85067 0.853393L1.70567 4.00039H6.99967C9.93167 4.00039 12.5927 5.64039 13.9357 8.04339C13.9708 8.1008 13.9939 8.16469 14.0037 8.23125C14.0135 8.29781 14.0098 8.36566 13.9927 8.43074C13.9757 8.49582 13.9457 8.5568 13.9046 8.61002C13.8634 8.66324 13.8119 8.7076 13.7532 8.74045C13.6945 8.77331 13.6298 8.79398 13.5629 8.80122C13.496 8.80847 13.4283 8.80214 13.364 8.78262C13.2996 8.7631 13.2398 8.73079 13.1882 8.68762C13.1366 8.64446 13.0942 8.59132 13.0637 8.53139C11.8937 6.43939 9.56367 5.00039 6.99967 5.00039H1.70667L4.85067 8.14539C4.94175 8.23969 4.99214 8.36599 4.99101 8.49709C4.98987 8.62819 4.93728 8.7536 4.84458 8.8463C4.75187 8.93901 4.62647 8.99159 4.49537 8.99273C4.36427 8.99387 4.23797 8.94347 4.14367 8.85239L0.160668 4.86739C0.111205 4.82169 0.071485 4.76646 0.043892 4.70502C0.016299 4.64359 0.00140172 4.57721 9.42409e-05 4.50988C-0.00121324 4.44254 0.0110958 4.37563 0.0362831 4.31317C0.0614703 4.25071 0.0990166 4.19398 0.146668 4.14639L4.14367 0.146393C4.23743 0.0526575 4.36459 0 4.49717 0C4.62975 0 4.7569 0.0526575 4.85067 0.146393Z" fill="black"/>
</svg>
